HIERARCHY
ROOT Hips
{
	OFFSET 0.000000 0.000000 0.000000
	CHANNELS 6 Xposition Yposition Zposition Zrotation Yrotation Xrotation 
	JOINT LHipJoint
	{
		OFFSET 0.000000 0.000000 0.000000
		CHANNELS 3 Zrotation Yrotation Xrotation
		JOINT LeftUpLeg
		{
			OFFSET 1.363060 -1.794630 0.839290
			CHANNELS 3 Zrotation Yrotation Xrotation
			JOINT LeftLeg
			{
				OFFSET 2.448110 -6.726130 0.000000
				CHANNELS 3 Zrotation Yrotation Xrotation
				JOINT LeftFoot
				{
					OFFSET 2.562200 -7.039590 0.000000
					CHANNELS 3 Zrotation Yrotation Xrotation
					JOINT LeftToeBase
					{
						OFFSET 0.157640 -0.433110 2.322550
						CHANNELS 3 Zrotation Yrotation Xrotation
						End Site
						{
							OFFSET 0.000000 0.000000 0.000000
						}
					}
				}
			}
		}
	}
	JOINT RHipJoint
	{
		OFFSET 0.000000 0.000000 0.000000
		CHANNELS 3 Zrotation Yrotation Xrotation
		JOINT RightUpLeg
		{
			OFFSET -1.305520 -1.794630 0.839290
			CHANNELS 3 Zrotation Yrotation Xrotation
			JOINT RightLeg
			{
				OFFSET -2.542530 -6.985550 0.000000
				CHANNELS 3 Zrotation Yrotation Xrotation
				JOINT RightFoot
				{
					OFFSET -2.568260 -7.056230 0.000000
					CHANNELS 3 Zrotation Yrotation Xrotation
					JOINT RightToeBase
					{
						OFFSET -0.164730 -0.452590 2.363150
						CHANNELS 3 Zrotation Yrotation Xrotation
						End Site
						{
							OFFSET 0.000000 0.000000 0.000000
						}
					}
				}
			}
		}
	}
}
MOTION
Frames: 27
Frame Time: 0.008333
6.917251 16.386854 -7.316339 -176.040594 28.361983 -173.460071 -12.751789 5.147538 0.012899 -8.779621 11.082120 4.989188 0.290206 2.864901 40.899940 1.425318 5.983232 15.510565 1.723200 -0.000000 -42.389700 8.341776 -0.765001 1.948689 6.041797 -2.328355 -36.087554 2.205314 -2.099966 31.197634 0.873475 7.235125 1.845389 0.929700 -0.000000 -62.341200
7.017067 16.382371 -7.476808 -176.044765 27.550842 -173.713426 -12.950465 5.086675 -0.141225 -8.203467 12.003332 3.162807 0.485281 2.973127 44.369044 1.692498 7.943510 16.178847 2.455200 -0.000001 -37.211200 8.377425 -0.818677 1.743802 6.048955 -3.243108 -35.696150 2.149215 -2.182337 32.529306 0.887907 7.591240 1.323711 0.932700 0.000000 -60.544900
7.113397 16.380465 -7.635310 -176.050289 26.739980 -173.916856 -13.128260 5.006830 -0.276993 -7.774946 12.820565 1.209950 0.650837 3.078716 47.749372 1.948904 9.993142 16.372416 3.220100 -0.000001 -32.322200 8.401371 -0.875562 1.546194 6.090230 -4.224169 -35.283829 2.126681 -2.238491 33.633517 0.896392 7.886978 0.595769 0.893700 0.000000 -58.753900
7.206782 16.381383 -7.791540 -176.080984 25.928427 -174.079255 -13.276918 4.914951 -0.393647 -7.525880 13.535304 -0.855622 0.791899 3.186525 51.000394 2.184100 12.008538 16.115926 3.934999 0.000000 -28.163100 8.421156 -0.932991 1.362037 6.128816 -5.243416 -34.858878 2.129043 -2.272930 34.526485 0.896421 8.102966 -0.285745 0.817900 0.000000 -57.069800
7.297518 16.385259 -7.945293 -176.155044 25.116692 -174.210514 -13.390681 4.816868 -0.494010 -7.475993 14.161915 -3.017950 0.913965 3.298748 54.090465 2.389282 13.874409 15.434720 4.519700 -0.000001 -24.809401 8.444269 -0.988127 1.196363 6.130439 -6.271742 -34.424648 2.147044 -2.289893 35.229896 0.886232 8.228141 -1.256897 0.715799 -0.000000 -55.575400
7.385689 16.392056 -8.096367 -176.285058 24.307740 -174.322205 -13.465652 4.716659 -0.583952 -7.633876 14.723269 -5.254889 1.021279 3.414934 56.988244 2.558059 15.497322 14.363469 4.910900 0.000000 -22.149500 8.477831 -1.038024 1.052357 6.064422 -7.281177 -33.980686 2.171454 -2.293586 35.770592 0.865093 8.259322 -2.251783 0.600300 -0.000000 -54.336200
7.471406 16.401706 -8.244543 -176.479569 23.507511 -174.426448 -13.500451 4.616959 -0.670933 -7.995759 15.244375 -7.538325 1.115557 3.532916 59.662334 2.686393 16.810333 12.948136 5.070901 -0.000000 -19.981601 8.527047 -1.080287 0.931196 5.908041 -8.244138 -33.520843 2.193783 -2.287788 36.175601 0.833196 8.197630 -3.209417 0.483900 0.000000 -53.395000
7.554479 16.414016 -8.389687 -176.738087 22.723439 -174.533961 -13.496359 4.518818 -0.762117 -8.547771 15.747561 -9.834778 1.195966 3.649197 62.078876 2.773545 17.780579 11.267096 4.998500 0.000000 -18.280400 8.594596 -1.113354 0.831926 5.647277 -9.136231 -33.035570 2.207171 -2.275883 36.471390 0.791668 8.048836 -4.079861 0.376800 -0.000001 -52.770400
7.634644 16.428706 -8.531559 -177.056062 21.964286 -174.658365 -13.456253 4.422614 -0.866376 -9.264164 16.256957 -12.104748 1.259295 3.761019 64.208350 2.819772 18.397945 9.392845 4.716200 0.000000 -16.894300 8.681100 -1.136389 0.750382 5.276100 -9.939170 -32.508287 2.206794 -2.260866 36.682029 0.742356 7.823990 -4.830018 0.285500 0.000000 -52.456200
7.711612 16.445386 -8.670297 -177.420974 21.235696 -174.801894 -13.383567 4.328335 -0.987493 -10.116617 16.785918 -14.323754 1.301569 3.865494 66.033184 2.827678 18.681555 7.389907 4.265800 0.000001 -15.646200 8.785502 -1.150235 0.683643 4.800680 -10.643572 -31.936343 2.190795 -2.245599 36.831755 0.687871 7.539878 -5.443911 0.212700 -0.000001 -52.429000
7.785017 16.463833 -8.805802 -177.818075 20.544698 -174.977536 -13.285728 4.235190 -1.131628 -11.061598 17.350598 -16.451904 1.319050 3.961087 67.533481 2.802842 18.674503 5.365015 3.713900 -0.000000 -14.704000 8.902926 -1.156274 0.623617 4.233786 -11.245595 -31.294325 2.159361 -2.231038 36.929958 0.630265 7.211763 -5.921211 0.157800 -0.000000 -52.645300
7.854606 16.483637 -8.938292 -178.229241 19.892398 -175.186732 -13.168980 4.142470 -1.299807 -12.059509 17.957304 -18.471356 1.309228 4.046863 68.708384 2.752151 18.436800 3.374623 3.115700 0.000001 -13.952999 9.028292 -1.157031 0.564717 3.597632 -11.751719 -30.575344 2.115327 -2.218013 36.985609 0.571812 6.858478 -6.276557 0.118100 -0.000001 -53.055501
7.920234 16.504499 -9.068122 -178.635326 19.277390 -175.427705 -13.040773 4.049032 -1.490460 -13.067966 18.606380 -20.373156 1.271218 4.122555 69.566644 2.684329 18.040012 1.463631 2.518700 -0.000000 -13.347600 9.154779 -1.155748 0.501665 2.922203 -12.173085 -29.773333 2.063016 -2.206079 36.998959 0.513948 6.493863 -6.533667 0.089900 -0.000000 -53.607700
7.981964 16.526096 -9.195728 -179.022120 18.694112 -175.698146 -12.906483 3.954023 -1.699174 -14.054991 19.289838 -22.153823 1.205600 4.187918 70.124396 2.609148 17.560819 -0.349668 1.953200 0.000000 -12.800800 9.277017 -1.155148 0.429975 2.234222 -12.529553 -28.886613 2.007278 -2.194393 36.966674 0.457753 6.130208 -6.721211 0.069500 -0.000000 -54.253300
8.039800 16.548085 -9.321829 -179.372062 18.133454 -175.987257 -12.771815 3.856089 -1.918303 -14.991756 19.990963 -23.823275 1.113821 4.242909 70.406218 2.535967 17.068228 -2.074580 1.430500 -0.000001 -12.216300 9.388753 -1.158181 0.347332 1.565029 -12.840264 -27.920892 1.953179 -2.181259 36.880284 0.403283 5.771103 -6.867070 0.053800 -0.000000 -54.951300
8.094143 16.570222 -9.447056 -179.678846 17.584566 -176.286930 -12.638982 3.754578 -2.138476 -15.863334 20.686224 -25.391350 0.997439 4.286939 70.436713 2.472946 16.618437 -3.739696 0.947400 -0.000000 -11.489500 9.486917 -1.166453 0.252528 0.935122 -13.128845 -26.883751 1.904508 -2.165119 36.731682 0.350321 5.417751 -6.995193 0.040800 0.000000 -55.669700
8.145393 16.592257 -9.572139 -179.937046 17.035414 -176.585181 -12.509208 3.648874 -2.348726 -16.661651 21.346464 -26.872187 0.857900 4.319114 70.240360 2.426157 16.247595 -5.381646 0.491300 -0.000000 -10.549300 9.569313 -1.181006 0.146176 0.361336 -13.415484 -25.787035 1.863858 -2.144275 36.512158 0.298065 5.065380 -7.120922 0.029300 0.000000 -56.385700
8.194028 16.614018 -9.697896 179.854468 16.474186 -176.868236 -12.382468 3.538583 -2.536911 -17.386140 21.938921 -28.282401 0.696379 4.338005 69.836955 2.399232 15.970259 -7.030839 0.047600 -0.000000 -9.368700 9.634948 -1.202267 0.030386 -0.145165 -13.717608 -24.645714 1.832389 -2.117083 36.214148 0.245533 4.706693 -7.249834 0.019100 -0.000001 -57.081500
8.240591 16.635160 -9.824739 179.687687 15.892456 -177.133531 -12.255345 3.424156 -2.695635 -18.043670 22.440759 -29.621069 0.513530 4.341644 69.236531 2.393668 15.783891 -8.712607 -0.398900 0.000000 -7.945899 9.687353 -1.228743 -0.093700 -0.592558 -14.048969 -23.466806 1.809213 -2.083360 35.838259 0.192204 4.338357 -7.381946 0.010400 0.000000 -57.752700
8.285467 16.655531 -9.953239 179.557867 15.283595 -177.371568 -12.126200 3.305808 -2.816148 -18.640696 22.828881 -30.896905 0.310603 4.327993 68.445558 2.408662 15.669350 -10.424665 -0.854800 0.000000 -6.327600 9.728232 -1.259779 -0.222541 -0.983675 -14.413580 -22.263251 1.792652 -2.042525 35.385047 0.137277 3.953234 -7.507679 0.003800 0.000000 -58.393900
8.328963 16.675155 -10.083881 179.459021 14.645376 -177.573987 -11.993285 3.184041 -2.891276 -19.185263 23.085877 -32.114487 0.090061 4.294668 67.462272 2.440971 15.596293 -12.130341 -1.314700 0.000000 -4.642000 9.760039 -1.294403 -0.352671 -1.325808 -14.813492 -21.049760 1.780623 -1.994615 34.858357 0.080865 3.550435 -7.610852 -0.000200 0.000000 -59.001200
8.371328 16.693881 -10.216816 179.380551 13.979928 -177.740938 -11.854183 3.059816 -2.919336 -19.685420 23.209374 -33.268269 -0.144878 4.239703 66.279970 2.485946 15.533577 -13.779070 -1.765100 0.000000 -3.018400 9.786985 -1.331063 -0.481400 -1.634728 -15.242796 -19.834516 1.770150 -1.940872 34.270223 0.023650 3.133760 -7.676742 -0.001699 0.000000 -59.579499
8.412545 16.711480 -10.352146 179.315956 13.294382 -177.872452 -11.708265 2.934154 -2.901452 -20.145717 23.206022 -34.353852 -0.389628 4.162235 64.893968 2.537151 15.449509 -15.303834 -2.183300 0.000000 -1.603400 9.812034 -1.368504 -0.606235 -1.923553 -15.689197 -18.625512 1.758692 -1.882767 33.635804 -0.033483 2.708842 -7.695018 -0.001400 -0.000000 -60.132899
8.452570 16.728001 -10.489828 179.257139 12.597537 -177.970165 -11.555246 2.808464 -2.840194 -20.572378 23.088847 -35.366565 -0.638818 4.061592 63.296454 2.587187 15.318135 -16.626477 -2.540601 0.000000 -0.539400 9.838031 -1.405964 -0.724638 -2.205173 -16.140939 -17.432329 1.744273 -1.822256 32.971898 -0.088581 2.288649 -7.654708 -0.000200 -0.000000 -60.670200
8.491010 16.743239 -10.629765 179.201721 11.901704 -178.036184 -11.396508 2.684129 -2.741258 -20.968258 22.878265 -36.302459 -0.887028 3.938646 61.487070 2.628445 15.119710 -17.680146 177.189500 -0.000000 -0.083300 9.866496 -1.442763 -0.835146 -2.489486 -16.583247 -16.263191 1.725938 -1.761440 32.297954 -0.139648 1.887707 -7.554681 0.000500 -0.000000 -61.199101
8.527660 16.757131 -10.771716 179.145126 11.219594 -178.074815 -11.234010 2.562682 -2.611432 -21.335253 22.597661 -37.158419 -1.129913 3.795026 59.469941 2.654052 14.841300 -18.417303 177.026100 0.000000 -0.254400 9.898223 -1.478648 -0.936631 -2.783059 -17.002054 -15.123780 1.703400 -1.702243 31.631073 -0.184605 1.521729 -7.398696 -0.000300 0.000000 -61.728000
8.562078 16.769510 -10.915450 179.087225 10.564242 -178.089598 -11.070500 2.445368 -2.458151 -21.674732 22.270425 -37.933207 -1.364371 3.633021 57.255648 2.658633 14.476436 -18.813571 176.978100 0.000000 -0.002600 9.933098 -1.513424 -1.028964 -3.090144 -17.386762 -14.020010 1.677410 -1.646436 30.987700 -0.221390 1.207259 -7.196517 -0.002900 0.000000 -62.264300
